<svg width="20" height="17" viewBox="0 0 20 17" fill="none" xmlns="http://www.w3.org/2000/svg">
<path d="M19.9989 13.0679L19.9934 13.6723C19.9501 14.2159 19.6133 14.4224 19.105 14.422L18.7057 14.4075C18.7065 14.0044 18.5254 13.5736 18.2976 13.2458C17.2509 11.7401 14.8914 12.1559 14.4173 13.9587C14.3769 14.1122 14.361 14.264 14.3341 14.4192C14.097 14.4448 13.8358 14.4239 13.5965 14.424L7.18252 14.4238C7.1504 14.3379 7.15975 14.2178 7.14031 14.1241C6.60747 11.5577 3.00808 11.838 2.79964 14.4251L2.1126 14.4246C1.97579 14.4243 1.81027 14.4412 1.67904 14.4031C0.983866 14.2014 0.929883 13.7075 0.929286 13.1176L0.928124 1.94221C0.928218 1.63164 0.913131 1.31285 0.933578 1.0035C0.963061 0.557327 1.37211 0.138685 1.80898 0.080018C1.93593 0.0629362 2.06992 0.0704755 2.19805 0.0700828L2.84406 0.0690229L13.1477 0.0672555C13.2732 0.0670592 13.4071 0.0579883 13.5317 0.0713004C13.9445 0.115399 14.379 0.467637 14.426 0.895468L14.4285 0.919148C14.4562 1.15067 14.4399 1.3965 14.4399 1.6303L14.4374 10.9472C14.4372 11.2738 14.4192 11.6123 14.4391 11.9374C14.4611 12.2959 15.003 12.2392 15.0377 11.8771C15.0621 11.6226 15.0442 11.3502 15.044 11.094L15.044 4.72733C15.2147 4.72714 15.4036 4.71198 15.5722 4.7333C16.4541 4.84471 16.5661 5.71788 16.7508 6.39978L17.1889 7.95195C17.3786 8.6139 17.3587 8.78475 17.9848 9.10467L18.6787 9.44066C19.492 9.81752 20 10.0113 20.0002 11.0632L19.9989 13.0679ZM6.48413 2.45089C6.30903 2.47603 6.26321 2.70583 6.20352 2.84668L4.3169 7.91366C4.14918 8.43252 4.63297 8.32661 4.95839 8.32496L9.02893 8.32425L10.7992 8.3246C11.2715 8.32398 11.2434 8.1896 11.2309 7.76436L11.2197 7.41817C11.076 5.10839 9.27412 3.03309 7.02859 2.5226C6.85078 2.48219 6.66759 2.44245 6.48413 2.45089Z" fill="#2C2826"/>
<path d="M8.95509 7.72337L5.01123 7.71729L6.74333 3.05788C8.72874 3.55643 10.1541 4.94363 10.5734 6.98689C10.6241 7.23369 10.6376 7.47555 10.6667 7.72412L8.95509 7.72337ZM7.05512 4.96421C6.48093 5.12619 6.60322 5.92499 7.2341 5.84535C7.78343 5.6763 7.66166 4.93896 7.05512 4.96421ZM8.07614 6.24295C7.5135 6.33641 7.47659 7.10599 8.10492 7.1301C8.66297 7.06071 8.69101 6.26031 8.07614 6.24295Z" fill="#2C2826"/>
<path d="M5.08143 16.0804C3.64707 16.095 2.86037 14.5439 3.79798 13.4686C4.09972 13.1225 4.46994 12.976 4.92012 12.9444C5.73176 12.891 6.50158 13.5118 6.56551 14.3342C6.63557 15.2349 5.99121 16.015 5.08143 16.0804Z" fill="#2C2826"/>
<path d="M16.72 16.0754C14.5774 16.2315 14.2889 13.2223 16.333 12.9436C17.7555 12.7811 18.6262 14.3678 17.7707 15.4771C17.5084 15.8173 17.1411 16.0195 16.72 16.0754Z" fill="#2C2826"/>
</svg>
